{"title":"Piranha.2010.720p.BRRip.x264.Feel-Free","uid":6067589,"size":1913806516,"categoryP":"video","categoryS":"hd___movies","magnet":"?xt=urn:btih:00c9e6d4065b246c51c0a7be11d94d8ecfdfbc29&amp;dn=Piranha.2010.720p.BRRip.x264.Feel-Free&amp;tr=udp%3A%2F%2Ftracker.openbittorrent.com%3A80&amp;tr=udp%3A%2F%2Fopen.demonii.com%3A1337&amp;tr=udp%3A%2F%2Ftracker.coppersurfer.tk%3A6969&amp;tr=udp%3A%2F%2Fexodus.desync.com%3A6969","seeders":0,"leechers":2,"uploader":"hiest","files":-1,"time":1293459505,"description":"Genre:Action | Horror | Sci-Fi | Thriller\nLanguage:English\nIMDb:http://www.imdb.com/title/tt0464154/\nSource:BluRay.x264-METiS\nSubtitles:Romana\n\n\nFormat : Matroska\nFile size : 1.78 GiB\nDuration : 1h 28mn\nOverall bit rate : 2 876 Kbps\n\n\nVideo\nFormat settings, CABAC : Yes\nFormat settings, ReFrames : 4 frames\nFormat settings, GOP : M=1, N=16\nCodec ID : V_MPEG4/ISO/AVC\nDuration : 1h 28mn\nBit rate : 2 500 Kbps\nWidth : 1 280 pixels\nHeight : 536 pixels\nDisplay aspect ratio : 2.35:1\nFrame rate mode : Variable\nFrame rate : 23.976 fps\nColor space : YUV\nChroma subsampling : 4:2:0\nBit depth : 8 bits\nScan type : Progressive\nBits/(Pixel*Frame) : 0.152\nStream size : 1.50 GiB (85%)\nWriting library : x264\n\n\nAudio\nID : 2\nFormat : AC-3\nFormat/Info : Audio Coding 3\nMode extension : CM (complete main)\nCodec ID : A_AC3\nDuration : 1h 28mn\nBit rate mode : Constant\nBit rate : 384 Kbps\nChannel(s) : 6 channels\nChannel positions : Front: L C R, Side: L R, LFE\nSampling rate : 48.0 KHz\nBit depth : 16 bits\nVideo delay : -1mn 5s\nStream size : 243 MiB (13%)\nLanguage : English\n\n\n\nPlot:\nAfter a sudden underwater tremor sets free scores of the prehistoric man-eating fish, an unlikely group of strangers must band together to stop themselves from becoming fish food for the area's new razor-toothed residents\n\n\n\n================================== &lt;a href=&quot;\nhttp://thepiratebay.se/user/hiest&quot; rel=&quot;nofollow&quot; target=&quot;_NEW&quot;&gt;\nhttp://thepiratebay.se/user/hiest&lt;/a&gt;\n==================================","torrent":{"xt":"urn:btih:00c9e6d4065b246c51c0a7be11d94d8ecfdfbc29","amp;dn":"Piranha.2010.720p.BRRip.x264.Feel-Free","amp;tr":["udp%3A%2F%2Ftracker.openbittorrent.com%3A80","udp%3A%2F%2Fopen.demonii.com%3A1337","udp%3A%2F%2Ftracker.coppersurfer.tk%3A6969","udp%3A%2F%2Fexodus.desync.com%3A6969"],"infoHash":"00c9e6d4065b246c51c0a7be11d94d8ecfdfbc29","infoHashBuffer":{"type":"Buffer","data":[0,201,230,212,6,91,36,108,81,192,167,190,17,217,77,142,207,223,188,41]},"announce":[],"urlList":[]}}